<svg width="30" height="34" viewBox="0 0 30 34" fill="none" xmlns="http://www.w3.org/2000/svg">
<path d="M26.6667 3.66668H19.7C19.3587 2.69241 18.7231 1.84827 17.8811 1.25104C17.0391 0.653812 16.0323 0.333008 15 0.333008C13.9677 0.333008 12.9609 0.653812 12.1189 1.25104C11.2769 1.84827 10.6413 2.69241 10.3 3.66668H3.33333C2.45009 3.66932 1.60378 4.02135 0.979225 4.6459C0.354674 5.27045 0.00263788 6.11677 0 7.00001V30.3333C0.00263788 31.2166 0.354674 32.0629 0.979225 32.6875C1.60378 33.312 2.45009 33.664 3.33333 33.6667H26.6667C27.5499 33.664 28.3962 33.312 29.0208 32.6875C29.6453 32.0629 29.9974 31.2166 30 30.3333V7.00001C29.9974 6.11677 29.6453 5.27045 29.0208 4.6459C28.3962 4.02135 27.5499 3.66932 26.6667 3.66668ZM15 3.66668C15.3296 3.66668 15.6519 3.76443 15.926 3.94756C16.2 4.1307 16.4137 4.391 16.5398 4.69554C16.6659 5.00008 16.6989 5.33519 16.6346 5.6585C16.5703 5.9818 16.4116 6.27877 16.1785 6.51186C15.9454 6.74494 15.6485 6.90368 15.3252 6.96799C15.0018 7.0323 14.6667 6.99929 14.3622 6.87314C14.0576 6.747 13.7974 6.53338 13.6142 6.2593C13.4311 5.98521 13.3333 5.66298 13.3333 5.33335C13.3347 4.89172 13.5107 4.46857 13.8229 4.15629C14.1352 3.84402 14.5584 3.668 15 3.66668ZM11.6667 12L16.3167 16.6567L20.5167 12.4567L18.3333 10.3333H25V17L22.8733 14.815L16.32 21.3733L11.6667 16.7167L7.35667 21.0233L5 18.6667L11.6667 12ZM26.6667 28.6667H3.33333V25.3333H26.6667V28.6667Z" fill="#60FFA0"/>
</svg>
