<svg width="28" height="34" viewBox="0 0 28 34" fill="none" xmlns="http://www.w3.org/2000/svg">
<path d="M21.5 5.75C21.5 5.05964 22.0596 4.5 22.75 4.5H25.75C26.8546 4.5 27.75 5.39543 27.75 6.5V31.25C27.75 32.3546 26.8546 33.25 25.75 33.25H2.25C1.14543 33.25 0.25 32.3546 0.25 31.25V6.5C0.25 5.39543 1.14543 4.5 2.25 4.5H5.25C5.94036 4.5 6.5 5.05964 6.5 5.75C6.5 6.44036 7.05964 7 7.75 7H20.25C20.9404 7 21.5 6.44036 21.5 5.75ZM5.25 15.75C5.25 16.4404 5.80964 17 6.5 17H21.5C22.1904 17 22.75 16.4404 22.75 15.75C22.75 15.0596 22.1904 14.5 21.5 14.5H6.5C5.80964 14.5 5.25 15.0596 5.25 15.75ZM5.25 25.75C5.25 26.4404 5.80964 27 6.5 27H21.5C22.1904 27 22.75 26.4404 22.75 25.75C22.75 25.0596 22.1904 24.5 21.5 24.5H6.5C5.80964 24.5 5.25 25.0596 5.25 25.75ZM10.875 4.5C9.83947 4.5 9 3.66053 9 2.625C9 1.58947 9.83947 0.75 10.875 0.75H17.125C18.1605 0.75 19 1.58947 19 2.625C19 3.66053 18.1605 4.5 17.125 4.5H10.875Z" fill="#60FFA0"/>
</svg>
