<svg width="28" height="28" viewBox="0 0 28 28" fill="none" xmlns="http://www.w3.org/2000/svg">
<path fill-rule="evenodd" clip-rule="evenodd" d="M5.8335 4.66671C5.52408 4.66671 5.22733 4.78962 5.00854 5.00842C4.78975 5.22721 4.66683 5.52395 4.66683 5.83337V22.1667C4.66683 22.4761 4.78975 22.7729 5.00854 22.9917C5.22733 23.2105 5.52408 23.3334 5.8335 23.3334H22.1668C22.4762 23.3334 22.773 23.2105 22.9918 22.9917C23.2106 22.7729 23.3335 22.4761 23.3335 22.1667V16.0265C23.3335 15.7171 23.4564 15.4204 23.6752 15.2016C23.894 14.9828 24.1907 14.8599 24.5002 14.8599C24.8096 14.8599 25.1063 14.9828 25.3251 15.2016C25.5439 15.4204 25.6668 15.7171 25.6668 16.0265V22.1667C25.6668 23.095 25.2981 23.9852 24.6417 24.6416C23.9853 25.298 23.0951 25.6667 22.1668 25.6667H5.8335C4.90524 25.6667 4.015 25.298 3.35862 24.6416C2.70225 23.9852 2.3335 23.095 2.3335 22.1667V5.83337C2.3335 4.90512 2.70225 4.01488 3.35862 3.3585C4.015 2.70212 4.90524 2.33337 5.8335 2.33337H11.6867C11.9961 2.33337 12.2928 2.45629 12.5116 2.67508C12.7304 2.89388 12.8533 3.19062 12.8533 3.50004C12.8533 3.80946 12.7304 4.10621 12.5116 4.325C12.2928 4.54379 11.9961 4.66671 11.6867 4.66671H5.8335Z" fill="#F0F0F0"/>
<path fill-rule="evenodd" clip-rule="evenodd" d="M24.9798 3.00076C25.1898 3.21137 25.3078 3.49666 25.3078 3.79409C25.3078 4.09153 25.1898 4.37682 24.9798 4.58743L14.7458 14.8378C14.6418 14.9418 14.5183 15.0244 14.3824 15.0807C14.2464 15.137 14.1008 15.166 13.9536 15.166C13.8065 15.166 13.6608 15.137 13.5249 15.0807C13.389 15.0244 13.2655 14.9418 13.1615 14.8378C12.9514 14.6272 12.8335 14.3419 12.8335 14.0444C12.8335 13.747 12.9514 13.4617 13.1615 13.2511L23.3966 3.00076C23.6066 2.79095 23.8914 2.6731 24.1882 2.6731C24.4851 2.6731 24.7698 2.79095 24.9798 3.00076Z" fill="#F0F0F0"/>
<path fill-rule="evenodd" clip-rule="evenodd" d="M24.5467 2.33337C25.165 2.33337 25.6667 2.83504 25.6667 3.45571V9.33337C25.6667 9.95287 25.1183 10.5 24.5 10.5C23.8817 10.5 23.3333 9.95287 23.3333 9.33337V4.66671H18.6667C18.0483 4.66671 17.5 4.11954 17.5 3.50004C17.5 2.88054 18.0017 2.33337 18.62 2.33337H24.5467Z" fill="#F0F0F0"/>
</svg>
