<svg width="123" height="42" viewBox="0 0 123 42" fill="none" xmlns="http://www.w3.org/2000/svg">
<path d="M13.43 35.2929L20.4135 4.44748H24.5815L26.8414 7.08369L19.4132 38.3595H14.8193L13.4485 35.2929H13.43ZM11.5776 4.44748L17.4682 35.5081L15.9492 38.3416H10.6328L3.20467 4.44748H11.5776ZM30.6574 35.3646L36.511 4.46541H44.8654L37.4372 38.3775H32.1393L30.6759 35.3646H30.6574ZM27.5824 4.44748L34.7327 35.4722L33.2878 38.3595H28.6938L21.0804 7.02989L23.433 4.44748H27.5639H27.5824Z" fill="url(#paint0_linear_2_21)"/>
<path d="M104.42 30.3792L111.7 4.46542H121.148L109.329 38.3775H103.216L104.402 30.3971L104.42 30.3792ZM97.8072 4.44748L105.087 30.3612L106.31 38.3416H100.123L88.3785 4.42955H97.7887L97.8072 4.44748Z" fill="url(#paint1_linear_2_21)"/>
<path d="M75.8747 21.5739C75.6524 23.3851 74.7632 25.0709 73.3739 26.3262C71.9661 27.5816 70.1507 28.3527 68.1872 28.4962C66.2236 28.6396 64.2971 28.1375 62.6855 27.0974C61.0739 26.0572 59.9069 24.5149 59.3512 22.7575C58.7955 21 58.9437 19.117 59.7032 17.4492C60.4626 15.7814 61.852 14.4184 63.5932 13.5935C65.3345 12.7686 67.3166 12.5354 69.2431 12.93C71.1696 13.3245 72.8738 14.3288 74.0779 15.7635C71.3178 14.2391 67.2239 15.9787 67.4648 20.6413C68.4095 23.7438 73.6888 24.8736 75.8562 21.5918L75.8747 21.5739Z" fill="url(#paint2_linear_2_21)"/>
<path d="M56.7208 16.6422C57.8137 13.4142 59.8513 10.5986 62.5003 8.66183C65.1492 6.74295 68.2057 5.82835 71.1881 6.07942C74.1705 6.33049 76.875 7.72929 78.8571 10.0427C80.8206 12.3561 81.9506 15.4406 82.0062 18.7763C82.0803 22.1119 81.08 25.4654 79.2276 28.2989C78.3384 29.6439 76.1155 32.854 71.7623 34.2886C71.3363 34.4321 66.6867 35.9026 62.5003 34.0376C61.9075 33.7686 60.7035 33.2126 59.5364 32.029C58.4991 30.971 57.9619 29.8591 57.684 29.1776C61.4444 34.9522 77.0232 32.7822 78.3199 21.7532C80.7095 8.84116 63.834 4.19641 56.7023 16.6422H56.7208Z" fill="url(#paint3_linear_2_21)"/>
<path d="M84.6366 24.7122C83.6733 29.3032 81.3022 33.4637 77.9123 36.4765C74.5224 39.5073 70.336 41.2109 66.0384 41.3006C61.7593 41.3903 57.647 39.8659 54.4238 36.9786C51.2006 34.0914 49.0333 30.0384 48.3294 25.4833C47.6254 20.9283 48.3849 16.1759 50.5152 12.0333C52.6455 7.87276 55.9983 4.59095 59.9995 2.72588C64.0007 0.860803 68.4095 0.538002 72.4663 1.79334C74.3928 2.40307 78.6348 3.85568 80.9132 7.67549C74.5039 0.322801 52.7937 5.55935 52.9789 20.8745C51.9786 38.9155 76.7824 42.8249 84.6181 24.7122H84.6366Z" fill="url(#paint4_linear_2_21)"/>
<defs>
<linearGradient id="paint0_linear_2_21" x1="24.0257" y1="4.44748" x2="24.0257" y2="38.3595" gradientUnits="userSpaceOnUse">
<stop stop-color="#3A9960"/>
<stop offset="1" stop-color="#60FFA0"/>
</linearGradient>
<linearGradient id="paint1_linear_2_21" x1="104.791" y1="4.44748" x2="104.791" y2="38.3595" gradientUnits="userSpaceOnUse">
<stop stop-color="#3A9960"/>
<stop offset="1" stop-color="#60FFA0"/>
</linearGradient>
<linearGradient id="paint2_linear_2_21" x1="68.428" y1="12.7865" x2="66.6556" y2="28.4735" gradientUnits="userSpaceOnUse">
<stop stop-color="#3A9960"/>
<stop offset="1" stop-color="#60FFA0"/>
</linearGradient>
<linearGradient id="paint3_linear_2_21" x1="64.1489" y1="34.6114" x2="73.1277" y2="6.39097" gradientUnits="userSpaceOnUse">
<stop stop-color="#3A9960"/>
<stop offset="1" stop-color="#60FFA0"/>
</linearGradient>
<linearGradient id="paint4_linear_2_21" x1="70.725" y1="1.36294" x2="62.9452" y2="41.0937" gradientUnits="userSpaceOnUse">
<stop stop-color="#3A9960"/>
<stop offset="1" stop-color="#60FFA0"/>
</linearGradient>
</defs>
</svg>
