<svg width="38" height="38" viewBox="0 0 38 38" fill="none" xmlns="http://www.w3.org/2000/svg">
<path fill-rule="evenodd" clip-rule="evenodd" d="M26.8602 5.1836L30.3372 8.66056C35.4464 13.7715 38 16.3251 38 19.498C38 22.6729 35.4464 25.2265 30.3372 30.3355C25.2262 35.4464 22.6726 38 19.4977 38C16.3247 38 13.7691 35.4464 8.66 30.3374L5.18298 26.8604C2.24746 23.9231 0.778751 22.4563 0.233447 20.5506C-0.313756 18.6449 0.153647 16.6215 1.08845 12.5764L1.62616 10.2432C2.41086 6.83848 2.80417 5.1361 3.96887 3.96952C5.13358 2.80293 6.83789 2.41154 10.2427 1.62685L12.5759 1.08725C16.623 0.154364 18.6446 -0.31303 20.5503 0.232263C22.456 0.779457 23.9247 2.24814 26.8602 5.1836ZM17.3773 23.4234C16.0986 22.1466 16.1081 20.3112 16.8738 18.8577C16.6842 18.5839 16.5965 18.2524 16.6259 17.9207C16.6554 17.589 16.8 17.278 17.0349 17.0419C17.2697 16.8057 17.5798 16.6593 17.9113 16.6279C18.2428 16.5966 18.5749 16.6824 18.8498 16.8704C19.4958 16.5284 20.2045 16.346 20.9113 16.3536C21.2892 16.3571 21.6503 16.5106 21.915 16.7803C22.1798 17.0501 22.3265 17.4139 22.323 17.7918C22.3195 18.1698 22.166 18.5308 21.8962 18.7956C21.6265 19.0603 21.2626 19.2071 20.8847 19.2035C20.4447 19.2198 20.029 19.4089 19.7276 19.7298C18.9923 20.4651 19.1842 21.2023 19.3913 21.4094C19.6003 21.6165 20.3356 21.8084 21.0709 21.0731C22.5605 19.5835 25.1331 19.0895 26.7804 20.7368C28.0591 22.0155 28.0496 23.8509 27.2839 25.3044C27.4723 25.5782 27.559 25.9093 27.529 26.2403C27.4991 26.5714 27.3543 26.8815 27.1199 27.1171C26.8854 27.3527 26.576 27.4989 26.2451 27.5304C25.9142 27.562 25.5827 27.4769 25.3079 27.2898C24.4553 27.7576 23.4663 27.9135 22.5111 27.7306C22.1407 27.6545 21.8157 27.4344 21.6076 27.1187C21.3996 26.803 21.3254 26.4176 21.4015 26.0472C21.4776 25.6769 21.6977 25.3519 22.0134 25.1438C22.3291 24.9357 22.7145 24.8616 23.0849 24.9377C23.4212 25.008 23.9646 24.8978 24.4301 24.4323C25.1654 23.6951 24.9735 22.9598 24.7664 22.7527C24.5574 22.5456 23.8221 22.3537 23.0868 23.089C21.5972 24.5786 19.0246 25.0726 17.3773 23.4234ZM15.2378 15.757C15.5907 15.404 15.8705 14.9851 16.0614 14.524C16.2523 14.0629 16.3505 13.5688 16.3504 13.0697C16.3503 12.5707 16.2519 12.0766 16.0609 11.6156C15.8698 11.1546 15.5898 10.7357 15.2369 10.3829C14.884 10.0301 14.465 9.75025 14.0039 9.55936C13.5428 9.36847 13.0486 9.27027 12.5496 9.27036C12.0506 9.27044 11.5564 9.36882 11.0954 9.55987C10.6344 9.75093 10.2155 10.0309 9.86271 10.3838C9.15018 11.0966 8.74998 12.0632 8.75016 13.0711C8.75033 14.0789 9.15088 15.0454 9.86366 15.7579C10.5765 16.4704 11.5431 16.8706 12.551 16.8705C13.5588 16.8703 14.5253 16.4697 15.2378 15.757Z" fill="#60FFA0"/>
</svg>
