<svg width="37" height="41" viewBox="0 0 37 41" fill="none" xmlns="http://www.w3.org/2000/svg">
<path d="M27.8751 20.5739C27.6528 22.3852 26.7636 24.0709 25.3743 25.3263C23.9665 26.5816 22.1511 27.3528 20.1876 27.4962C18.224 27.6397 16.2975 27.1376 14.6859 26.0974C13.0743 25.0573 11.9073 23.515 11.3516 21.7575C10.7959 20.0001 10.944 18.1171 11.7035 16.4493C12.463 14.7815 13.8523 13.4185 15.5936 12.5936C17.3349 11.7686 19.3169 11.5355 21.2434 11.93C23.17 12.3246 24.8742 13.3288 26.0782 14.7635C23.3181 13.2392 19.2243 14.9787 19.4651 19.6414C20.4099 22.7439 25.6892 23.8737 27.8566 20.5919L27.8751 20.5739Z" fill="url(#paint0_linear_312_447)"/>
<path d="M8.72165 15.6423C9.81457 12.4143 11.8522 9.59879 14.5012 7.66199C17.1501 5.74311 20.2066 4.82851 23.189 5.07958C26.1713 5.33065 28.8759 6.72945 30.8579 9.04286C32.8215 11.3563 33.9515 14.4408 34.007 17.7764C34.0811 21.112 33.0808 24.4656 31.2284 27.2991C30.3393 28.6441 28.1164 31.8541 23.7632 33.2888C23.3372 33.4323 18.6876 34.9028 14.5012 33.0377C13.9084 32.7687 12.7043 32.2128 11.5373 31.0292C10.5 29.9711 9.96276 28.8593 9.6849 28.1778C13.4453 33.9523 29.0241 31.7824 30.3207 20.7534C32.7104 7.84132 15.8349 3.19657 8.70312 15.6423H8.72165Z" fill="url(#paint1_linear_312_447)"/>
<path d="M36.6367 23.7123C35.6734 28.3033 33.3024 32.4638 29.9124 35.4766C26.5225 38.5074 22.3361 40.211 18.0385 40.3007C13.7594 40.3904 9.64708 38.866 6.42389 35.9787C3.2007 33.0915 1.03338 29.0385 0.329466 24.4834C-0.37445 19.9284 0.385042 15.176 2.51531 11.0334C4.64558 6.87285 7.99844 3.59104 11.9996 1.72597C16.0008 -0.139105 20.4096 -0.461906 24.4664 0.793431C26.3929 1.40317 30.6349 2.85577 32.9133 6.67558C26.504 -0.677107 4.79377 4.55944 4.97901 19.8746C3.97871 37.9155 28.7825 41.825 36.6182 23.7123H36.6367Z" fill="url(#paint2_linear_312_447)"/>
<defs>
<linearGradient id="paint0_linear_312_447" x1="20.4284" y1="11.7866" x2="18.656" y2="27.4736" gradientUnits="userSpaceOnUse">
<stop stop-color="#3A9960"/>
<stop offset="1" stop-color="#60FFA0"/>
</linearGradient>
<linearGradient id="paint1_linear_312_447" x1="16.1498" y1="33.6116" x2="25.1286" y2="5.39113" gradientUnits="userSpaceOnUse">
<stop stop-color="#3A9960"/>
<stop offset="1" stop-color="#60FFA0"/>
</linearGradient>
<linearGradient id="paint2_linear_312_447" x1="22.7251" y1="0.36303" x2="14.9453" y2="40.0938" gradientUnits="userSpaceOnUse">
<stop stop-color="#3A9960"/>
<stop offset="1" stop-color="#60FFA0"/>
</linearGradient>
</defs>
</svg>
