<svg xmlns="http://www.w3.org/2000/svg" width="1340" height="1443" fill="none"><path fill="#fff" d="M1018.67 744.184c-8.15 68.44-40.725 132.137-91.627 179.571-51.581 47.434-118.093 76.575-190.034 81.995-71.942 5.42-142.526-13.555-201.573-52.857-59.046-39.303-101.804-97.578-122.165-163.986C392.91 722.5 398.34 651.349 426.166 588.33c27.827-63.019 78.729-114.519 142.526-145.69 63.797-31.17 136.418-39.979 207.002-25.072 70.584 14.908 133.024 52.855 177.139 107.065-101.125-57.598-251.117 8.132-242.294 184.314 34.614 117.23 228.042 159.92 307.451 35.915l.68-.678Z"/><path fill="#fff" d="M316.897 557.837c40.042-121.973 114.699-228.36 211.752-301.544 97.053-72.506 209.038-107.065 318.308-97.578 109.27 9.487 208.363 62.342 280.983 149.756 71.94 87.413 113.34 203.965 115.37 330.003 2.72 126.039-33.93 252.755-101.8 359.82-32.58 50.826-114.02 172.116-273.514 226.326-15.61 5.42-185.962 60.99-339.347-9.49-21.718-10.16-65.833-31.17-108.591-75.89-38.007-39.98-57.689-81.99-67.869-107.74 137.775 218.19 708.561 136.2 756.061-280.54 87.56-487.89-530.735-663.396-792.032-193.123h.679Z"/><path fill="#fff" d="M1339.69 862.769c-35.29 173.471-122.17 330.681-246.37 444.521-124.198 114.52-277.583 178.89-435.04 182.28-156.779 3.39-307.449-54.21-425.542-163.31-118.093-109.09-197.5-262.24-223.29-434.353-25.79-172.117 2.036-351.688 80.086-508.22 78.05-157.209 200.893-281.215 347.491-351.688C583.623-38.474 745.152-50.67 893.787-3.237c70.584 23.039 226.003 77.927 309.483 222.261C968.443-58.803 173.013 139.064 179.8 717.757c-36.65 681.693 872.12 829.413 1159.21 145.012h.68Z"/></svg>