<svg width="37" height="40" viewBox="0 0 37 40" fill="none" xmlns="http://www.w3.org/2000/svg">
<path d="M17.9752 25.68L23.3786 31.8233C25.3786 34.0983 26.3802 35.2367 27.4286 34.9583C28.4752 34.6817 28.8352 33.185 29.5536 30.19L33.5369 13.5767C34.6452 8.96332 35.1986 6.65832 33.9686 5.51998C32.7386 4.38165 30.6069 5.22832 26.3436 6.91998L6.56689 14.775C3.15689 16.13 1.45189 16.8067 1.34355 17.97C1.33079 18.0885 1.33079 18.2081 1.34355 18.3267C1.44855 19.4917 3.15022 20.1733 6.55689 21.5383C8.09855 22.1567 8.87022 22.4667 9.42355 23.0583C9.48578 23.125 9.54577 23.1939 9.60355 23.265C10.1136 23.8983 10.3302 24.7317 10.7652 26.3917L11.5802 29.5033C12.0019 31.12 12.2136 31.93 12.7686 32.04C13.3236 32.15 13.8052 31.48 14.7702 30.1383L17.9752 25.68ZM17.9752 25.68L17.4469 25.13C16.8436 24.5 16.5419 24.1867 16.5419 23.7967C16.5419 23.4067 16.8419 23.0917 17.4469 22.4633L23.4019 16.2567" stroke="#60FFA0" stroke-width="2.5" stroke-linecap="round" stroke-linejoin="round"/>
</svg>
