<svg width="40" height="40" viewBox="0 0 40 40" fill="none" xmlns="http://www.w3.org/2000/svg">
<path fill-rule="evenodd" clip-rule="evenodd" d="M17.5 0C12.9971 0 8.84286 0.7 5.74571 1.89429C4.20286 2.48857 2.83143 3.23714 1.81714 4.16571C0.802857 5.09143 0 6.33143 0 7.84V27.1571C0 28.4714 0.611429 29.5914 1.44 30.4629C2.25714 31.3286 3.36286 32.04 4.60286 32.62C7.08571 33.7829 10.4314 34.5714 14.1457 34.8686C14.3809 34.8898 14.6179 34.8642 14.8431 34.7932C15.0684 34.7223 15.2773 34.6073 15.4578 34.4551C15.6382 34.3028 15.7868 34.1163 15.8947 33.9063C16.0026 33.6963 16.0678 33.4669 16.0865 33.2315C16.1052 32.9962 16.077 32.7594 16.0036 32.535C15.9302 32.3105 15.813 32.1029 15.6589 31.9241C15.5047 31.7452 15.3165 31.5987 15.1054 31.4931C14.8942 31.3874 14.6641 31.3247 14.4286 31.3086C11 31.0314 8.1 30.3143 6.11429 29.3857C5.12286 28.92 4.44 28.44 4.03143 28.0057C3.63143 27.5829 3.57143 27.3029 3.57143 27.1571V22.4314C3.90286 22.62 4.24571 22.7971 4.6 22.9629C7.08571 24.1257 10.4343 24.9143 14.1429 25.2114C14.6149 25.2493 15.0827 25.0981 15.4433 24.7911C15.804 24.4841 16.0278 24.0464 16.0657 23.5743C16.1036 23.1022 15.9524 22.6344 15.6454 22.2738C15.3384 21.9132 14.9007 21.6893 14.4286 21.6514C11 21.3743 8.1 20.6571 6.11429 19.7286C5.12286 19.2629 4.44 18.7829 4.03143 18.3514C3.63143 17.9257 3.57143 17.6457 3.57143 17.5V12.7743C4.23714 13.1543 4.97143 13.4943 5.74571 13.7914C8.84286 14.9857 12.9971 15.6857 17.5 15.6857C22.0029 15.6857 26.1571 14.9857 29.2543 13.7914C30.0352 13.4943 30.76 13.1552 31.4286 12.7743V14.2857C31.4286 14.7593 31.6167 15.2135 31.9516 15.5484C32.2865 15.8833 32.7407 16.0714 33.2143 16.0714C33.6879 16.0714 34.1421 15.8833 34.477 15.5484C34.8119 15.2135 35 14.7593 35 14.2857V7.84286C35 6.33143 34.2 5.09143 33.1829 4.16571C32.1657 3.24 30.7971 2.48571 29.2543 1.89429C26.1571 0.7 22 0 17.5 0ZM29.4114 18.4714H29.4057C28.8285 18.4724 28.2652 18.6482 27.7898 18.9756C27.3145 19.3031 26.9495 19.7668 26.7429 20.3057L26.3086 21.42L25.0571 22.1343L23.8543 21.9486H23.8286C23.2663 21.8712 22.6937 21.963 22.1838 22.2124C21.6739 22.4617 21.2499 22.8572 20.9657 23.3486L20.96 23.3571L20.3886 24.3571C20.0969 24.8561 19.9634 25.4318 20.0058 26.0083C20.0481 26.5847 20.2643 27.1347 20.6257 27.5857L20.6286 27.5914L21.3914 28.5343V29.9371L20.6286 30.88L20.6257 30.8886C20.2643 31.3396 20.0481 31.8896 20.0058 32.466C19.9634 33.0424 20.0969 33.6182 20.3886 34.1171L20.96 35.1171L20.9657 35.1229C21.2495 35.6147 21.6734 36.0108 22.1833 36.2607C22.6932 36.5106 23.266 36.6028 23.8286 36.5257L23.8543 36.5229L25.0571 36.3371L26.3086 37.0514L26.7429 38.1657C26.9495 38.7047 27.3145 39.1684 27.7898 39.4958C28.2652 39.8232 28.8285 39.999 29.4057 40H30.5943C31.1711 39.9992 31.7343 39.8239 32.2095 39.497C32.6848 39.1701 33.0501 38.707 33.2571 38.1686L33.6914 37.0486L34.9429 36.3371L36.1486 36.5229L36.1714 36.5257C36.734 36.6028 37.3068 36.5106 37.8167 36.2607C38.3266 36.0108 38.7505 35.6147 39.0343 35.1229L39.04 35.1143L39.6114 34.1143C39.9035 33.6156 40.0374 33.04 39.9956 32.4636C39.9538 31.8872 39.7381 31.337 39.3771 30.8857L39.3714 30.88L38.6086 29.9371V28.5343L39.3714 27.5914L39.3771 27.5829C39.7381 27.1315 39.9538 26.5814 39.9956 26.005C40.0374 25.4285 39.9035 24.853 39.6114 24.3543L39.04 23.3543L39.0343 23.3486C38.7501 22.8572 38.3261 22.4617 37.8162 22.2124C37.3063 21.963 36.7337 21.8712 36.1714 21.9486H36.1486L34.9429 22.1343L33.6914 21.42L33.2571 20.3057C33.0505 19.7668 32.6855 19.3031 32.2102 18.9756C31.7348 18.6482 31.1715 18.4724 30.5943 18.4714H29.4114ZM30 25.7143C29.0528 25.7143 28.1444 26.0906 27.4746 26.7603C26.8048 27.4301 26.4286 28.3385 26.4286 29.2857C26.4286 30.2329 26.8048 31.1413 27.4746 31.8111C28.1444 32.4809 29.0528 32.8571 30 32.8571C30.9472 32.8571 31.8556 32.4809 32.5254 31.8111C33.1952 31.1413 33.5714 30.2329 33.5714 29.2857C33.5714 28.3385 33.1952 27.4301 32.5254 26.7603C31.8556 26.0906 30.9472 25.7143 30 25.7143Z" fill="#60FFA0"/>
</svg>
