<svg width="1340" height="1381" viewBox="0 0 1340 1381" fill="none" xmlns="http://www.w3.org/2000/svg">
<path d="M1018.67 744.184C1010.52 812.624 977.945 876.321 927.043 923.755C875.462 971.189 808.95 1000.33 737.009 1005.75C665.067 1011.17 594.483 992.195 535.436 952.893C476.39 913.59 433.632 855.315 413.271 788.907C392.91 722.5 398.34 651.349 426.166 588.33C453.993 525.311 504.895 473.811 568.692 442.64C632.489 411.47 705.11 402.661 775.694 417.568C846.278 432.476 908.718 470.423 952.833 524.633C851.708 467.035 701.716 532.765 710.539 708.947C745.153 826.177 938.581 868.867 1017.99 744.862L1018.67 744.184Z" fill="white"/>
<path d="M316.897 557.837C356.939 435.864 431.596 329.477 528.649 256.293C625.702 183.787 737.687 149.228 846.957 158.715C956.227 168.202 1055.32 221.057 1127.94 308.471C1199.88 395.884 1241.28 512.436 1243.31 638.474C1246.03 764.513 1209.38 891.229 1141.51 998.294C1108.93 1049.12 1027.49 1170.41 867.996 1224.62C852.386 1230.04 682.034 1285.61 528.649 1215.13C506.931 1204.97 462.816 1183.96 420.058 1139.24C382.051 1099.26 362.369 1057.25 352.189 1031.5C489.964 1249.69 1060.75 1167.7 1108.25 750.96C1195.81 263.07 577.515 87.5645 316.218 557.837H316.897Z" fill="white"/>
<path d="M1339.69 862.769C1304.4 1036.24 1217.52 1193.45 1093.32 1307.29C969.122 1421.81 815.737 1486.18 658.28 1489.57C501.501 1492.96 350.831 1435.36 232.738 1326.26C114.645 1217.17 35.238 1064.02 9.44757 891.907C-16.3428 719.79 11.4838 540.219 89.5336 383.687C167.584 226.478 290.427 102.472 437.025 31.9992C583.623 -38.4739 745.152 -50.6712 893.787 -3.23738C964.371 19.8019 1119.79 74.6896 1203.27 219.024C968.443 -58.8027 173.013 139.064 179.8 717.757C143.15 1399.45 1051.92 1547.17 1339.01 862.769H1339.69Z" fill="white"/>
</svg>
