<svg width="34" height="34" viewBox="0 0 34 34" fill="none" xmlns="http://www.w3.org/2000/svg">
<path d="M28.7498 5.18334C27.2216 3.64019 25.4015 2.41662 23.3957 1.58395C21.3898 0.751273 19.2383 0.326147 17.0665 0.333342C7.9665 0.333342 0.549837 7.75001 0.549837 16.85C0.549837 19.7667 1.3165 22.6 2.74984 25.1L0.416504 33.6667L9.1665 31.3667C11.5832 32.6833 14.2998 33.3833 17.0665 33.3833C26.1665 33.3833 33.5832 25.9667 33.5832 16.8667C33.5832 12.45 31.8665 8.30001 28.7498 5.18334ZM17.0665 30.5833C14.5998 30.5833 12.1832 29.9167 10.0665 28.6667L9.5665 28.3667L4.3665 29.7333L5.74984 24.6667L5.4165 24.15C4.04575 21.9618 3.31805 19.4321 3.3165 16.85C3.3165 9.28334 9.48317 3.11668 17.0498 3.11668C20.7165 3.11668 24.1665 4.55001 26.7498 7.15001C28.0292 8.42311 29.043 9.93758 29.7325 11.6056C30.4221 13.2735 30.7735 15.0618 30.7665 16.8667C30.7998 24.4333 24.6332 30.5833 17.0665 30.5833ZM24.5998 20.3167C24.1832 20.1167 22.1498 19.1167 21.7832 18.9667C21.3998 18.8333 21.1332 18.7667 20.8498 19.1667C20.5665 19.5833 19.7832 20.5167 19.5498 20.7833C19.3165 21.0667 19.0665 21.1 18.6498 20.8833C18.2332 20.6833 16.8998 20.2333 15.3332 18.8333C14.0998 17.7333 13.2832 16.3833 13.0332 15.9667C12.7998 15.55 12.9998 15.3333 13.2165 15.1167C13.3998 14.9333 13.6332 14.6333 13.8332 14.4C14.0332 14.1667 14.1165 13.9833 14.2498 13.7167C14.3832 13.4333 14.3165 13.2 14.2165 13C14.1165 12.8 13.2832 10.7667 12.9498 9.93334C12.6165 9.13334 12.2665 9.23334 12.0165 9.21668H11.2165C10.9332 9.21668 10.4998 9.31668 10.1165 9.73334C9.74984 10.15 8.68317 11.15 8.68317 13.1833C8.68317 15.2167 10.1665 17.1833 10.3665 17.45C10.5665 17.7333 13.2832 21.9 17.4165 23.6833C18.3998 24.1167 19.1665 24.3667 19.7665 24.55C20.7498 24.8667 21.6498 24.8167 22.3665 24.7167C23.1665 24.6 24.8165 23.7167 25.1498 22.75C25.4998 21.7833 25.4998 20.9667 25.3832 20.7833C25.2665 20.6 25.0165 20.5167 24.5998 20.3167Z" fill="#60FFA0"/>
</svg>
